<?xml version="1.0" encoding="utf-8"?>
<!-- Generator: Adobe Illustrator 23.0.1, SVG Export Plug-In . SVG Version: 6.00 Build 0)  -->
<svg version="1.1" id="Layer_1" xmlns="http://www.w3.org/2000/svg" xmlns:xlink="http://www.w3.org/1999/xlink" x="0px" y="0px"
	 viewBox="0 0 1210.29 1041.02" style="enable-background:new 0 0 1210.29 1041.02;" xml:space="preserve">
<style type="text/css">
	.st0{fill:#1A4170;}
	.st1{fill:#FFFFFF;}
	.st2{opacity:0.28;fill:#AAAAAA;}
	.st3{opacity:0.53;fill:#FFFFFF;}
</style>
<rect class="st0" width="1210.29" height="1041.48"/>
<g>
	<g>
		<g>
			<g>
				<path class="st1" d="M248.23,681.95h19.8v69.41h42.89v16.13h-62.69V681.95z"/>
				<path class="st1" d="M328.17,681.95h19.8v85.54h-19.8V681.95z"/>
				<path class="st1" d="M452.22,767.49l-0.12-51.33l-25.17,42.29H418l-25.05-41.18v50.22h-18.58v-85.54h16.38l32.02,53.16
					l31.54-53.16h16.25l0.24,85.54H452.22z"/>
				<path class="st1" d="M490.5,759.06l6.72-14.91c7.22,5.26,17.97,8.92,28.23,8.92c11.73,0,16.5-3.91,16.5-9.16
					c0-16.01-49.74-5.01-49.74-36.79c0-14.54,11.73-26.64,36.05-26.64c10.76,0,21.76,2.56,29.7,7.58l-6.11,15.03
					c-7.95-4.52-16.13-6.72-23.71-6.72c-11.72,0-16.25,4.4-16.25,9.78c0,15.76,49.75,4.89,49.75,36.3c0,14.3-11.86,26.52-36.3,26.52
					C511.76,768.96,498.07,764.93,490.5,759.06z"/>
				<path class="st1" d="M696.2,712.99c0,19.06-14.3,30.92-37.15,30.92h-17.23v23.59h-19.8v-85.54h37.03
					C681.9,681.95,696.2,693.81,696.2,712.99z M676.16,712.99c0-9.41-6.12-14.91-18.21-14.91h-16.13v29.7h16.13
					C670.04,727.78,676.16,722.28,676.16,712.99z"/>
				<path class="st1" d="M716.39,681.95h19.79v69.41h42.9v16.13h-62.69V681.95z"/>
				<path class="st1" d="M794.49,729.85v-47.9h19.79v47.17c0,16.25,7.09,22.97,19.06,22.97c12.1,0,19.07-6.72,19.07-22.97v-47.17
					h19.55v47.9c0,25.17-14.42,39.11-38.74,39.11C808.91,768.96,794.49,755.03,794.49,729.85z"/>
				<path class="st1" d="M890.93,759.06l6.73-14.91c7.21,5.26,17.96,8.92,28.23,8.92c11.72,0,16.5-3.91,16.5-9.16
					c0-16.01-49.74-5.01-49.74-36.79c0-14.54,11.72-26.64,36.05-26.64c10.76,0,21.75,2.56,29.7,7.58l-6.12,15.03
					c-7.94-4.52-16.13-6.72-23.7-6.72c-11.73,0-16.25,4.4-16.25,9.78c0,15.76,49.74,4.89,49.74,36.3c0,14.3-11.86,26.52-36.29,26.52
					C912.2,768.96,898.51,764.93,890.93,759.06z"/>
			</g>
		</g>
		<g>
			<g>
				<path class="st1" d="M248.55,820.81v-28.27h4.43v28.27H248.55z"/>
				<path class="st1" d="M263.74,800.9v19.91h-4.43v-28.27h3.48l16.06,20.39v-20.34h4.47v28.23h-3.68L263.74,800.9z"/>
				<path class="st1" d="M294.08,800.9v19.91h-4.43v-28.27h3.48l16.06,20.39v-20.34h4.47v28.23h-3.68L294.08,800.9z"/>
				<path class="st1" d="M331.66,821.01c-2,0-3.83-0.4-5.48-1.21c-1.65-0.81-3.06-1.88-4.25-3.23c-1.19-1.34-2.1-2.87-2.75-4.6
					c-0.64-1.72-0.97-3.49-0.97-5.29c0-1.88,0.34-3.69,1.03-5.41c0.69-1.73,1.63-3.26,2.83-4.58c1.2-1.33,2.62-2.38,4.27-3.17
					c1.65-0.78,3.45-1.17,5.4-1.17c2.01,0,3.83,0.42,5.48,1.25c1.65,0.84,3.06,1.93,4.23,3.28c1.17,1.35,2.08,2.89,2.73,4.6
					c0.64,1.71,0.97,3.46,0.97,5.24c0,1.88-0.34,3.69-1.01,5.41c-0.67,1.73-1.62,3.25-2.83,4.56c-1.21,1.31-2.64,2.36-4.29,3.14
					C335.38,820.62,333.59,821.01,331.66,821.01z M322.73,806.67c0,1.33,0.21,2.62,0.63,3.86c0.42,1.25,1.02,2.35,1.8,3.31
					c0.78,0.95,1.72,1.72,2.83,2.29c1.11,0.57,2.35,0.85,3.72,0.85c1.42,0,2.68-0.3,3.78-0.89c1.1-0.6,2.03-1.39,2.79-2.37
					c0.76-0.98,1.34-2.08,1.74-3.3c0.39-1.22,0.59-2.47,0.59-3.74c0-1.35-0.21-2.64-0.63-3.88c-0.42-1.24-1.02-2.32-1.8-3.26
					c-0.77-0.94-1.71-1.7-2.81-2.27c-1.1-0.57-2.32-0.85-3.66-0.85c-1.42,0-2.69,0.3-3.8,0.89c-1.11,0.6-2.04,1.38-2.81,2.33
					c-0.77,0.95-1.35,2.05-1.76,3.28C322.93,804.15,322.73,805.4,322.73,806.67z"/>
				<path class="st1" d="M350.5,792.54l8.47,22.66l8.43-22.66h4.71l-11.24,28.27h-3.8l-11.27-28.27H350.5z"/>
				<path class="st1" d="M381.4,792.54h3.88l11.08,28.27h-4.67l-2.97-7.68h-10.84l-2.93,7.68h-4.71L381.4,792.54z M387.85,809.82
					l-4.51-12.14l-4.67,12.14H387.85z"/>
				<path class="st1" d="M417.68,796.49h-9.34v24.32h-4.47v-24.32h-9.38v-3.95h23.19V796.49z"/>
				<path class="st1" d="M421.44,820.81v-28.27h4.43v28.27H421.44z"/>
				<path class="st1" d="M443.87,821.01c-2,0-3.83-0.4-5.48-1.21c-1.65-0.81-3.06-1.88-4.25-3.23c-1.19-1.34-2.1-2.87-2.75-4.6
					c-0.64-1.72-0.97-3.49-0.97-5.29c0-1.88,0.34-3.69,1.03-5.41c0.69-1.73,1.63-3.26,2.83-4.58c1.2-1.33,2.62-2.38,4.27-3.17
					c1.65-0.78,3.45-1.17,5.4-1.17c2.01,0,3.83,0.42,5.48,1.25c1.65,0.84,3.06,1.93,4.23,3.28c1.17,1.35,2.08,2.89,2.73,4.6
					c0.64,1.71,0.97,3.46,0.97,5.24c0,1.88-0.34,3.69-1.01,5.41c-0.67,1.73-1.62,3.25-2.83,4.56c-1.21,1.31-2.64,2.36-4.29,3.14
					C447.58,820.62,445.79,821.01,443.87,821.01z M434.93,806.67c0,1.33,0.21,2.62,0.63,3.86c0.42,1.25,1.02,2.35,1.8,3.31
					c0.78,0.95,1.72,1.72,2.83,2.29c1.11,0.57,2.35,0.85,3.72,0.85c1.42,0,2.68-0.3,3.78-0.89c1.1-0.6,2.03-1.39,2.79-2.37
					c0.76-0.98,1.34-2.08,1.74-3.3c0.39-1.22,0.59-2.47,0.59-3.74c0-1.35-0.21-2.64-0.63-3.88c-0.42-1.24-1.02-2.32-1.8-3.26
					c-0.77-0.94-1.71-1.7-2.81-2.27c-1.1-0.57-2.32-0.85-3.66-0.85c-1.42,0-2.69,0.3-3.8,0.89c-1.11,0.6-2.04,1.38-2.81,2.33
					c-0.77,0.95-1.35,2.05-1.76,3.28C435.13,804.15,434.93,805.4,434.93,806.67z"/>
				<path class="st1" d="M466.38,800.9v19.91h-4.43v-28.27h3.48l16.06,20.39v-20.34h4.47v28.23h-3.68L466.38,800.9z"/>
				<path class="st1" d="M521.57,796.49h-9.34v24.32h-4.47v-24.32h-9.38v-3.95h23.19V796.49z"/>
				<path class="st1" d="M548.39,792.54v28.27h-4.47v-12.46h-14.16v12.46h-4.43v-28.27h4.43v11.83h14.16v-11.83H548.39z"/>
				<path class="st1" d="M554.72,820.81v-28.27h12.23c1.27,0,2.43,0.27,3.5,0.8c1.07,0.53,1.98,1.23,2.75,2.09
					c0.77,0.86,1.36,1.85,1.8,2.95c0.43,1.1,0.65,2.22,0.65,3.36c0,0.96-0.14,1.87-0.4,2.75c-0.27,0.88-0.63,1.69-1.11,2.43
					c-0.47,0.74-1.05,1.39-1.74,1.93c-0.69,0.54-1.44,0.95-2.26,1.22l6.61,10.75h-5.03l-6.09-9.83h-6.49v9.83H554.72z
					 M559.15,807.04h7.75c0.63,0,1.21-0.14,1.72-0.42c0.51-0.28,0.96-0.67,1.33-1.16c0.37-0.49,0.66-1.06,0.87-1.69
					c0.21-0.64,0.31-1.32,0.31-2.03c0-0.71-0.13-1.39-0.37-2.03c-0.25-0.64-0.58-1.19-0.99-1.67c-0.41-0.48-0.88-0.85-1.42-1.13
					c-0.54-0.28-1.1-0.42-1.68-0.42h-7.52V807.04z"/>
				<path class="st1" d="M592.54,821.01c-2,0-3.83-0.4-5.48-1.21c-1.65-0.81-3.06-1.88-4.25-3.23c-1.19-1.34-2.1-2.87-2.75-4.6
					c-0.64-1.72-0.97-3.49-0.97-5.29c0-1.88,0.34-3.69,1.03-5.41c0.69-1.73,1.63-3.26,2.83-4.58c1.2-1.33,2.62-2.38,4.27-3.17
					c1.65-0.78,3.45-1.17,5.4-1.17c2.01,0,3.83,0.42,5.48,1.25c1.65,0.84,3.06,1.93,4.23,3.28c1.17,1.35,2.08,2.89,2.73,4.6
					c0.64,1.71,0.97,3.46,0.97,5.24c0,1.88-0.34,3.69-1.01,5.41c-0.67,1.73-1.62,3.25-2.83,4.56c-1.21,1.31-2.64,2.36-4.29,3.14
					C596.26,820.62,594.47,821.01,592.54,821.01z M583.6,806.67c0,1.33,0.21,2.62,0.63,3.86c0.42,1.25,1.02,2.35,1.8,3.31
					c0.78,0.95,1.72,1.72,2.83,2.29c1.11,0.57,2.35,0.85,3.72,0.85c1.42,0,2.68-0.3,3.78-0.89c1.1-0.6,2.03-1.39,2.79-2.37
					c0.76-0.98,1.34-2.08,1.74-3.3c0.39-1.22,0.59-2.47,0.59-3.74c0-1.35-0.21-2.64-0.63-3.88s-1.02-2.32-1.8-3.26
					c-0.77-0.94-1.71-1.7-2.81-2.27c-1.1-0.57-2.32-0.85-3.66-0.85c-1.42,0-2.69,0.3-3.8,0.89s-2.04,1.38-2.81,2.33
					c-0.77,0.95-1.35,2.05-1.76,3.28C583.81,804.15,583.6,805.4,583.6,806.67z"/>
				<path class="st1" d="M622.34,816.98c1.48,0,2.7-0.29,3.68-0.87c0.98-0.58,1.76-1.35,2.35-2.29c0.59-0.94,1.02-2.02,1.27-3.23
					c0.25-1.21,0.38-2.45,0.38-3.72v-14.34h4.47v14.34c0,1.94-0.22,3.76-0.67,5.47c-0.45,1.71-1.16,3.21-2.14,4.5
					c-0.98,1.29-2.24,2.3-3.78,3.04c-1.55,0.74-3.4,1.11-5.56,1.11c-2.25,0-4.14-0.39-5.68-1.17c-1.55-0.78-2.79-1.83-3.74-3.14
					c-0.95-1.32-1.64-2.82-2.06-4.52c-0.42-1.7-0.63-3.47-0.63-5.29v-14.34h4.43v14.34c0,1.3,0.12,2.55,0.37,3.76
					c0.25,1.21,0.67,2.28,1.27,3.22c0.59,0.94,1.39,1.7,2.38,2.27C619.67,816.7,620.88,816.98,622.34,816.98z"/>
				<path class="st1" d="M660.03,817.3c-2.37,2.47-5.1,3.7-8.19,3.7c-1.87,0-3.61-0.39-5.22-1.17c-1.61-0.78-3.01-1.84-4.19-3.16
					c-1.19-1.33-2.12-2.87-2.79-4.62c-0.67-1.75-1.01-3.58-1.01-5.49c0-1.91,0.34-3.73,1.01-5.45c0.67-1.73,1.6-3.24,2.79-4.54
					c1.19-1.3,2.6-2.33,4.23-3.08c1.63-0.76,3.41-1.14,5.34-1.14c2.69,0,4.94,0.56,6.76,1.69s3.19,2.62,4.12,4.48l-3.4,2.47
					c-0.77-1.54-1.82-2.69-3.16-3.46c-1.35-0.77-2.82-1.16-4.43-1.16c-1.32,0-2.52,0.29-3.6,0.85c-1.08,0.57-2,1.33-2.77,2.27
					c-0.77,0.94-1.35,2.04-1.76,3.29c-0.41,1.24-0.62,2.55-0.62,3.9c0,1.43,0.23,2.78,0.7,4.02c0.46,1.25,1.09,2.34,1.9,3.26
					c0.81,0.93,1.76,1.67,2.87,2.21c1.11,0.54,2.31,0.81,3.6,0.81c1.42,0,2.79-0.33,4.09-1c1.31-0.66,2.55-1.71,3.74-3.14v-3.03
					h-5.9v-3.31h9.62v14.29h-3.72V817.3z"/>
				<path class="st1" d="M691.88,792.54v28.27h-4.47v-12.46h-14.16v12.46h-4.43v-28.27h4.43v11.83h14.16v-11.83H691.88z"/>
				<path class="st1" d="M715.03,792.54h3.88l11.08,28.27h-4.67l-2.97-7.68h-10.84l-2.93,7.68h-4.71L715.03,792.54z M721.48,809.82
					l-4.51-12.14l-4.67,12.14H721.48z"/>
				<path class="st1" d="M743.95,816.98c1.48,0,2.7-0.29,3.68-0.87c0.98-0.58,1.76-1.35,2.35-2.29c0.59-0.94,1.02-2.02,1.27-3.23
					c0.25-1.21,0.38-2.45,0.38-3.72v-14.34h4.47v14.34c0,1.94-0.22,3.76-0.67,5.47c-0.45,1.71-1.16,3.21-2.14,4.5
					c-0.98,1.29-2.24,2.3-3.78,3.04c-1.55,0.74-3.4,1.11-5.56,1.11c-2.25,0-4.14-0.39-5.68-1.17c-1.55-0.78-2.79-1.83-3.74-3.14
					c-0.95-1.32-1.64-2.82-2.06-4.52c-0.42-1.7-0.63-3.47-0.63-5.29v-14.34h4.43v14.34c0,1.3,0.12,2.55,0.37,3.76
					c0.25,1.21,0.67,2.28,1.27,3.22c0.59,0.94,1.39,1.7,2.38,2.27C741.28,816.7,742.5,816.98,743.95,816.98z"/>
				<path class="st1" d="M782.6,796.49h-9.34v24.32h-4.47v-24.32h-9.38v-3.95h23.19V796.49z"/>
				<path class="st1" d="M796.72,821.01c-2,0-3.83-0.4-5.48-1.21c-1.65-0.81-3.06-1.88-4.25-3.23c-1.19-1.34-2.1-2.87-2.75-4.6
					c-0.64-1.72-0.97-3.49-0.97-5.29c0-1.88,0.34-3.69,1.03-5.41c0.69-1.73,1.63-3.26,2.83-4.58c1.2-1.33,2.62-2.38,4.27-3.17
					s3.45-1.17,5.4-1.17c2.01,0,3.83,0.42,5.48,1.25c1.65,0.84,3.06,1.93,4.23,3.28c1.17,1.35,2.08,2.89,2.73,4.6
					c0.64,1.71,0.97,3.46,0.97,5.24c0,1.88-0.34,3.69-1.01,5.41c-0.67,1.73-1.62,3.25-2.83,4.56c-1.21,1.31-2.64,2.36-4.29,3.14
					C800.44,820.62,798.65,821.01,796.72,821.01z M787.79,806.67c0,1.33,0.21,2.62,0.63,3.86c0.42,1.25,1.02,2.35,1.8,3.31
					c0.78,0.95,1.72,1.72,2.83,2.29c1.11,0.57,2.35,0.85,3.72,0.85c1.42,0,2.68-0.3,3.78-0.89c1.1-0.6,2.03-1.39,2.79-2.37
					c0.76-0.98,1.34-2.08,1.74-3.3c0.39-1.22,0.59-2.47,0.59-3.74c0-1.35-0.21-2.64-0.63-3.88c-0.42-1.24-1.02-2.32-1.8-3.26
					c-0.77-0.94-1.71-1.7-2.81-2.27c-1.1-0.57-2.32-0.85-3.66-0.85c-1.42,0-2.69,0.3-3.8,0.89c-1.11,0.6-2.04,1.38-2.81,2.33
					s-1.35,2.05-1.76,3.28C787.99,804.15,787.79,805.4,787.79,806.67z"/>
				<path class="st1" d="M838.42,820.81v-20.34l-8.35,15.41h-2.46l-8.39-15.41v20.34h-4.43v-28.27h4.75l9.3,17.28l9.3-17.28h4.75
					v28.27H838.42z"/>
				<path class="st1" d="M857.49,792.54h3.88l11.08,28.27h-4.67l-2.97-7.68h-10.84l-2.93,7.68h-4.71L857.49,792.54z M863.94,809.82
					l-4.51-12.14l-4.67,12.14H863.94z"/>
				<path class="st1" d="M893.78,796.49h-9.34v24.32h-4.47v-24.32h-9.38v-3.95h23.19V796.49z"/>
				<path class="st1" d="M897.53,820.81v-28.27h4.43v28.27H897.53z"/>
				<path class="st1" d="M919.96,821.01c-2,0-3.83-0.4-5.48-1.21c-1.65-0.81-3.06-1.88-4.25-3.23c-1.19-1.34-2.1-2.87-2.75-4.6
					c-0.64-1.72-0.97-3.49-0.97-5.29c0-1.88,0.34-3.69,1.03-5.41c0.69-1.73,1.63-3.26,2.83-4.58c1.2-1.33,2.62-2.38,4.27-3.17
					s3.45-1.17,5.4-1.17c2.01,0,3.83,0.42,5.48,1.25c1.65,0.84,3.06,1.93,4.23,3.28c1.17,1.35,2.08,2.89,2.73,4.6
					c0.64,1.71,0.97,3.46,0.97,5.24c0,1.88-0.34,3.69-1.01,5.41c-0.67,1.73-1.62,3.25-2.83,4.56c-1.21,1.31-2.64,2.36-4.29,3.14
					C923.68,820.62,921.89,821.01,919.96,821.01z M911.02,806.67c0,1.33,0.21,2.62,0.63,3.86c0.42,1.25,1.02,2.35,1.8,3.31
					c0.78,0.95,1.72,1.72,2.83,2.29c1.11,0.57,2.35,0.85,3.72,0.85c1.42,0,2.68-0.3,3.78-0.89c1.1-0.6,2.03-1.39,2.79-2.37
					c0.76-0.98,1.34-2.08,1.74-3.3c0.39-1.22,0.59-2.47,0.59-3.74c0-1.35-0.21-2.64-0.63-3.88c-0.42-1.24-1.02-2.32-1.8-3.26
					c-0.77-0.94-1.71-1.7-2.81-2.27c-1.1-0.57-2.32-0.85-3.66-0.85c-1.42,0-2.69,0.3-3.8,0.89c-1.11,0.6-2.04,1.38-2.81,2.33
					s-1.35,2.05-1.76,3.28C911.23,804.15,911.02,805.4,911.02,806.67z"/>
				<path class="st1" d="M942.47,800.9v19.91h-4.43v-28.27h3.48l16.06,20.39v-20.34h4.47v28.23h-3.68L942.47,800.9z"/>
			</g>
		</g>
	</g>
	<path class="st1" d="M687.79,493.74c15.38-11.37,24.25-20.51,29.07-26.78c2-2.61,0.37-6.44-2.9-6.79
		c-2.39-0.25-5.26-0.42-8.73-0.42c-14.43,0-26.86,0.91-35.91,2.56l18.4,31.41C687.75,493.73,687.76,493.74,687.79,493.74z"/>
	<path class="st1" d="M537.82,567.52c23.83-5.02,50.34-13.66,76.7-25.04c7.32-3.14,14.49-6.44,21.42-9.84
		c-15.4-0.21-20.45-9.55-58.15-4.44c-5.82,0.82-11.55,0.88-17.13,0.44L537.82,567.52z"/>
	<path class="st1" d="M608.35,461.11c5.88,0,10.93-3.32,13.43-8.2c1.09-2.09,1.7-4.44,1.7-6.94s-0.62-4.88-1.7-6.96
		c-2.5-4.88-7.58-8.2-13.43-8.2c-5.85,0-10.96,3.32-13.46,8.2c-1.09,2.09-1.7,4.47-1.7,6.96s0.62,4.85,1.7,6.94
		C597.39,457.79,602.47,461.11,608.35,461.11z"/>
	<path class="st1" d="M596.56,485.16c5.08,0,9.17-4.08,9.17-9.14c0-5.08-4.08-9.17-9.17-9.17c-0.88,0-1.76,0.12-2.59,0.38
		c-3.79,1.09-6.55,4.61-6.55,8.79c0,1.82,0.53,3.5,1.44,4.91C590.48,483.48,593.33,485.16,596.56,485.16z"/>
	<path class="st1" d="M625.5,472.04c3.04,0,5.47-2.44,5.47-5.46c0-3.04-2.44-5.47-5.47-5.47c-0.53,0-1.05,0.07-1.54,0.23
		c-2.26,0.65-3.91,2.75-3.91,5.25c0,1.09,0.32,2.09,0.86,2.93C621.87,471.04,623.57,472.04,625.5,472.04z"/>
	<path class="st1" d="M640.41,498.8l-5.89-0.96c-1.27-0.21-2.46-0.78-3.37-1.7c-0.01-0.01-0.02-0.02-0.02-0.02
		c-0.98-0.97-1.65-2.19-1.87-3.54l-0.92-5.68h-0.93l-0.96,5.89c-0.21,1.27-0.78,2.46-1.7,3.37c-0.01,0.01-0.02,0.02-0.02,0.02
		c-0.97,0.98-2.19,1.65-3.54,1.87l-5.68,0.92v0.93l5.89,0.96c1.27,0.21,2.46,0.78,3.37,1.7c0.01,0.01,0.02,0.02,0.02,0.02
		c0.98,0.97,1.65,2.19,1.87,3.54l0.92,5.68h0.93l0.96-5.89c0.21-1.27,0.78-2.46,1.7-3.37c0.01-0.01,0.02-0.02,0.02-0.02
		c0.97-0.98,2.19-1.65,3.54-1.87l5.68-0.92V498.8z"/>
	<path class="st1" d="M806.64,367.3h-97.55c-19.58,0-35.45-15.87-35.45-35.45V234.3c0-7.89-6.4-14.29-14.29-14.29H550.93
		c-7.89,0-14.29,6.4-14.29,14.29v97.55c0,19.58-15.87,35.45-35.45,35.45h-97.55c-7.89,0-14.29,6.4-14.29,14.29V490
		c0,7.89,6.4,14.29,14.29,14.29h98.51C467,529.16,444.63,556,453.29,576.25c2.6,5.92,7.41,10.49,14.43,13.61
		c1.2,0.58,2.55,1.11,3.94,1.59c4.38,1.54,9.48,2.55,15.2,3.08l-2.21,3.8c-0.67,1.11-1.2,2.21-1.73,3.37
		c-0.58,1.2-1.06,2.45-1.49,3.75v0.05c-0.1,0.29-0.14,0.58-0.24,0.87c-0.24,0.72-0.48,1.49-0.63,2.21l-0.14,0.72
		c-0.05,0.34-0.1,0.63-0.14,0.96c-0.19,0.91-0.29,1.83-0.38,2.79c-0.05,0.38-0.1,0.77-0.1,1.15c-0.05,0.96-0.1,1.92-0.05,2.89V618
		c0.05,1.2,0.19,2.41,0.38,3.61c0.05,0.43,0.19,0.87,0.24,1.25c0.19,0.82,0.34,1.64,0.58,2.45c0.14,0.48,0.29,0.96,0.43,1.44
		c0.24,0.77,0.53,1.54,0.82,2.31c0.14,0.43,0.34,0.87,0.53,1.3c0.48,1.15,1.06,2.31,1.68,3.42c6.35,11.11,17.85,17.8,30.69,17.8
		h186.44c12.84,0,24.34-6.69,30.69-17.8c3.17-5.48,4.76-11.59,4.76-17.56c0-6.16-1.68-12.31-4.95-17.89l-36.85-62.77l-0.72-1.25
		l-3.75-6.4l-0.1-0.14c4.23-2.74,8.27-5.53,12.17-8.32c1.2-0.87,2.36-1.68,3.51-2.55c5.63-4.19,10.87-8.42,15.68-12.6
		c18.28-16.11,29.73-32.28,29.73-46.27c0-3.17-0.58-6.3-1.88-9.28c-8.23-19.14-44.11-22.37-83.26-15.49c0,5.39-0.05,10.2-0.1,14.67
		c13.28-2.45,29.1-2.84,38.77-2.84c8.61,0,15.63,0.91,20.88,2.55c5.15,1.64,8.51,4.09,9.81,7.12c3.94,9.09-8.99,27.9-37.23,49.16
		c-1.15,0.87-2.31,1.68-3.46,2.55c-0.91,0.67-1.83,1.3-2.79,1.97c-2.36,1.25-4.57,2.74-6.54,4.47c-0.96,0.67-1.88,1.3-2.84,1.88
		l-3.8-6.49l-2.41-4.04l-1.25-2.12l-13.28-22.66l-8.51-14.53c-0.82-1.39-1.39-2.89-1.73-4.43c-0.24-0.87-0.34-1.73-0.38-2.65
		c0-1.39,0.05-3.13,0.05-5.1c0.05-4.28,0.05-9.72,0.05-15.39c0.05-2.55,0.05-5.2,0.05-7.79c0.05-6.3,0.05-12.22-0.05-16.45v-0.53
		c-0.05-0.91-0.05-1.78-0.1-2.5v-0.05c0.53-0.29,1.44-0.72,2.07-1.01c4.38-2.02,12.51-5.87,13.18-17.94
		c0.53-8.66-3.08-15.92-10.25-20.44c-4.18-2.6-9.14-3.99-14.53-3.99h-67.39c-5.34,0-10.39,1.4-14.57,3.99
		c-7.07,4.57-10.68,11.78-10.2,20.39c0.67,12.12,8.8,15.97,13.18,17.99c0.53,0.24,1.2,0.58,1.73,0.87c0.1,0.34,0.14,0.58,0.14,0.87
		v46.18c0,1.01-0.14,2.02-0.38,3.03c-0.29,1.73-0.91,3.46-1.83,4.95l-3.51,5.96l-14.29,24.34l-7.46,12.84l-6.83,11.59l-8.51,14.48
		l-22.42,38.19l-4.43,7.5c-6.49-0.1-11.78-0.82-15.92-1.88c-1.49-0.38-2.89-0.82-4.09-1.3c-4.52-1.73-7.12-4.04-8.13-6.45
		c-4.18-9.72,19.96-37.76,52.43-60.75l5.2-8.85l25.25-43.1l0.05-0.34l0.14-0.38v-38.1c-6.35-4.23-14.19-12.17-15.01-26.79
		c-0.77-13.95,5.34-26.17,16.93-33.62c6.59-4.14,14.33-6.35,22.51-6.35h67.39c8.13,0,15.87,2.21,22.32,6.25
		c11.78,7.46,17.99,19.77,17.12,33.77c-0.77,14.05-8.03,21.93-14.24,26.26c12.12-1.97,23.62-2.98,34.2-2.98
		c41.22,0,56.33,15.06,61.76,27.71c2.02,4.62,3.08,9.72,3.08,15.06c0,14.48-7.84,30.02-23.23,46.27h63.45
		c7.89,0,14.29-6.4,14.29-14.29V381.58C820.92,373.7,814.53,367.3,806.64,367.3z M518.27,570.91l4.57-7.84l13.8-23.52l7.98-13.66
		l18.47-31.51l6.97-11.83l5.82-9.96c0.67-1.06,1.25-2.26,1.78-3.42c1.06-2.41,1.73-5,2.21-7.65c0.19-1.49,0.29-3.03,0.29-4.57
		v-46.18c0-3.32-0.82-6.64-2.36-9.52c-2.45-3.22-5.92-4.91-8.08-5.92c-3.56-1.64-4.28-1.97-4.47-5.15
		c-0.19-3.13,0.82-5.24,3.13-6.73c1.73-1.06,3.94-1.64,6.4-1.64h67.39c2.5,0,4.71,0.58,6.35,1.59c2.36,1.54,3.37,3.66,3.22,6.78
		c-0.19,3.17-0.96,3.46-4.52,5.15c-2.41,1.15-6.59,3.13-8.99,7.22c0,0.1,0,0.1-0.05,0.1c-1.2,2.12-1.88,4.71-1.78,7.98
		c0.05,0.87,0.05,1.97,0.05,3.17v43.15c0,2.6,0.38,5.1,0.96,7.6c0.43,1.59,0.96,3.13,1.59,4.62c0.53,1.15,1.11,2.36,1.73,3.42
		l24.96,42.52l0.72,1.2l3.8,6.49c-4.04,2.41-8.32,4.81-12.8,7.31c-0.14,0.1-0.24,0.14-0.38,0.24c-1.11,0.53-2.21,1.15-3.32,1.73
		c-11.02,5.87-23.09,11.69-36.22,17.36c-27.8,11.98-55.36,20.83-79.9,25.88c-0.34,0.05-0.63,0.1-0.96,0.19
		c-1.35,0.29-2.65,0.53-3.94,0.77h-0.05c-0.19,0-0.38,0.05-0.58,0.1c-6.2,1.15-12.17,2.02-17.85,2.6c-0.29,0.05-0.53,0.05-0.77,0.1
		L518.27,570.91z M509.85,594.58c1.92-0.14,3.94-0.29,5.96-0.53c2.07-0.24,4.18-0.48,6.35-0.77c0.19,0,0.38-0.05,0.58-0.1
		c0.05,0,23.23-5.24,49.54-12.75l0.24-0.1c22.13-6.16,37.57-12.22,47.76-16.74c2.31-1.06,9.52-4.33,23.95-10.92
		c5.24-2.41,11.59-5.29,17.03-7.74c1.11-0.48,2.16-0.96,3.17-1.44c0.24-0.1,0.43-0.24,0.63-0.34l-0.05-0.1
		c0.82-0.43,1.68-0.91,2.5-1.44c0.38-0.24,0.82-0.43,1.2-0.67c1.68-0.87,3.32-1.83,4.95-2.79c1.4-0.77,2.79-1.59,4.14-2.41
		l0.05,0.05l3.75,6.49l0.77,1.3l36.6,62.39c3.7,6.3,3.75,13.9,0.1,20.25c-3.66,6.4-10.2,10.2-17.56,10.2H515.1
		c-7.36,0-13.9-3.8-17.56-10.2c-0.63-1.15-1.15-2.36-1.59-3.61c-0.05-0.24-0.14-0.43-0.19-0.67c-0.38-1.2-0.63-2.41-0.77-3.66
		c0-0.19-0.05-0.43-0.05-0.63c-0.1-1.15-0.05-2.26,0.05-3.41c0-0.19,0-0.34,0.05-0.53c0.14-1.2,0.43-2.41,0.82-3.61
		c0.1-0.29,0.19-0.53,0.29-0.82c0.43-1.15,0.91-2.26,1.54-3.32l0.14-0.29l1.83-3.08l4.47-7.7c1.01-0.05,2.02-0.1,3.08-0.19
		C508.08,594.67,508.94,594.62,509.85,594.58z M514.76,437.38c0.29-0.1,0.58-0.14,0.91-0.14c1.78,0,3.27,1.44,3.27,3.27
		c0,1.78-1.49,3.22-3.27,3.22c-1.15,0-2.16-0.58-2.74-1.49c-0.34-0.48-0.53-1.11-0.53-1.73
		C512.4,439.02,513.41,437.77,514.76,437.38z M471.33,447.29c-2.41,0-4.52-1.25-5.72-3.13c-0.67-1.06-1.06-2.31-1.06-3.66
		c0-3.08,2.07-5.72,4.86-6.54c0.63-0.19,1.3-0.29,1.92-0.29c3.8,0,6.83,3.08,6.83,6.83C478.16,444.26,475.13,447.29,471.33,447.29z
		 M524.91,460.47l-10.97,1.78c-2.65,0.43-5,1.73-6.83,3.66c-0.05,0-0.05,0-0.05,0c-1.78,1.78-2.89,4.09-3.27,6.54l-1.88,11.35h-1.78
		l-1.78-10.97c-0.43-2.6-1.73-4.95-3.61-6.83c-0.05,0-0.05-0.05-0.05-0.05c-1.78-1.78-4.09-2.89-6.54-3.27l-11.35-1.83v-1.83
		l10.97-1.78c2.6-0.43,4.95-1.73,6.83-3.61l0.05-0.05c1.78-1.78,2.89-4.04,3.27-6.49l1.88-11.4h1.78l1.78,10.97
		c0.43,2.65,1.73,5,3.61,6.83c0.05,0.05,0.05,0.05,0.05,0.05c1.78,1.78,4.04,2.89,6.49,3.27l11.4,1.88V460.47z M729.1,410.06
		c-1.68,0-3.22-0.87-4.04-2.21c-0.48-0.77-0.77-1.64-0.77-2.6c0-2.21,1.44-4.09,3.46-4.67c0.43-0.1,0.91-0.19,1.35-0.19
		c2.69,0,4.86,2.16,4.86,4.86S731.79,410.06,729.1,410.06z M766.19,406.55c-1.35,0.24-2.6,0.91-3.56,1.88
		c-0.91,0.91-1.49,2.12-1.68,3.37l-0.96,5.92h-0.96l-0.91-5.68c-0.24-1.35-0.91-2.6-1.88-3.56c-0.91-0.91-2.12-1.49-3.37-1.73
		l-5.92-0.96v-0.91l5.68-0.91c1.35-0.24,2.6-0.91,3.56-1.88c0,0,0,0,0-0.05c0.91-0.87,1.49-2.07,1.73-3.37l0.96-5.87h0.91l0.91,5.68
		c0.24,1.35,0.91,2.6,1.88,3.56c0,0,0,0,0.05,0c0.87,0.91,2.07,1.49,3.37,1.68l5.87,0.96v0.96L766.19,406.55z M775.85,425.79
		c-1.73,0-3.22-0.87-4.09-2.21c-0.48-0.77-0.77-1.64-0.77-2.6c0-2.21,1.49-4.09,3.46-4.67c0.43-0.14,0.91-0.19,1.39-0.19
		c2.69,0,4.81,2.16,4.81,4.86C780.66,423.62,778.55,425.79,775.85,425.79z"/>
	<path class="st1" d="M705.91,613.67l-36.75-63.59l-4.09-6.93c-0.19,0.1-0.38,0.24-0.63,0.34c-6.01,2.74-13.88,6.32-20.21,9.2
		c-14.42,6.56-21.64,9.84-23.97,10.88c-10.15,4.53-25.59,10.63-47.74,16.76l-0.24,0.1c-26.31,7.5-49.5,12.75-49.54,12.75l-5.53,9.43
		l-6.49,11.06c-0.96,1.64-0.96,3.37,0,5.05c0.91,1.64,2.45,2.55,4.38,2.55h186.44c1.92,0,3.46-0.91,4.38-2.55
		C706.88,617.04,706.88,615.31,705.91,613.67z"/>
	<path class="st2" d="M665.08,543.16c-0.19,0.1-0.38,0.24-0.63,0.34c-6.01,2.74-13.88,6.32-20.21,9.2
		c-14.42,6.56-21.64,9.84-23.97,10.88c-10.15,4.53-25.59,10.63-47.74,16.76l-0.24,0.1c-26.31,7.5-49.5,12.75-49.54,12.75l-5.53,9.43
		c2.31-0.29,4.52-0.63,6.69-0.96c31.36-4.86,67.25-15.78,103.61-31.36c13.76-5.96,27.51-12.55,40.79-19.72
		c0.29-0.14,0.58-0.34,0.87-0.48L665.08,543.16z"/>
	<path class="st3" d="M667.53,541.62c-0.82,0.53-1.68,1.01-2.5,1.44l0.05,0.1c-0.19,0.1-0.38,0.24-0.63,0.34
		c-1.01,0.48-2.07,0.96-3.17,1.44C663.44,543.78,665.51,542.72,667.53,541.62z"/>
	<path class="st2" d="M695.19,535.56c-4.28,2.79-8.51,5.44-12.8,8.03l-0.77-1.3l-3.75-6.49c4.86-2.84,9.14-5.48,12.84-7.89l3.75,6.4
		L695.19,535.56z"/>
	<path class="st2" d="M507.21,594.72c-1.06,0.1-2.07,0.14-3.08,0.19l-4.47,7.7l-1.83,3.08c-5.1,0.38-10.82,0.48-16.4-0.19v-0.05
		c0.43-1.3,0.91-2.55,1.49-3.75c0.53-1.15,1.06-2.26,1.73-3.37l2.21-3.8C486.86,594.53,496.19,595.15,507.21,594.72z"/>
</g>
</svg>
